<svg xmlns="http://www.w3.org/2000/svg"><symbol id="bubbles" viewBox="0 0 256 256"><path d="M97.5 149.7H83.8l-18.4 21.7 2.9 4.2 35.3-18.6-6.1-7.3zm-25.4-15h114.1v10.85H72.1zm99.7-4.2a50.4 50.4 0 0 0 2.5-15.9 45.2 45.2 0 0 0-90.3 0c0 5.4.4 11.1 2.5 15.9zm-85.1 40.3h28.4l-8.6-10.5-19.8 10.5zm71.8-21.1l-6.3 7.3 35.5 18.6 2.9-4-18.4-21.9h-13.7z"/><path d="M128 1L18 64.5v127L128 255l110-63.5v-127zm66.8 171.7l-4.8 6.9a2.2 2.2 0 0 1-2.7.6l-10-5.2H78.6l-10 5.2a2.3 2.3 0 0 1-2.7-.6l-4.9-7a2.2 2.2 0 0 1 .2-2.5l17.3-20.4H70a2 2 0 0 1-2.1-2.1v-15a2 2 0 0 1 2.1-2.1h12.1a58.3 58.3 0 0 1-2.3-15.9 49.3 49.3 0 0 1 98.7 0 51.2 51.2 0 0 1-2.3 15.9h12.1a2 2 0 0 1 2.1 2.1v15a2 2 0 0 1-2.1 2.1h-10.7l17.1 20.4a2.2 2.2 0 0 1 .1 2.5z"/><path d="M140.9 170.8h28.4l-19.8-10.5-8.6 10.5zM103 149.7l17.5 21.1h15l17.5-21.1h-50z"/></symbol><symbol id="domes" viewBox="0 0 256 256"><path d="M127.7 127.1V84.9l-30 42.2h30zm-56.1 19.8h56.1v23.16H71.6zm54.1-66.2c-26.7 1.7-49 21.1-55.5 46.3h22.3zm6.2 66.2h9.4v23.16h-9.4z"/><path d="M129.8.2l-110 63.6v127l110 63.5 110-63.5v-127zm89.9 146.6h-27.5V172a2 2 0 0 1-2.1 2.1H69.5a2 2 0 0 1-2.1-2.1v-25.1H39.9a2.1 2.1 0 0 1 0-4.2h15.7v-13.6a2 2 0 0 1 2.1-2.1h8.1a66.1 66.1 0 0 1 63.8-50.7c.2-.2.4-.2.8 0 30.9.2 56.5 21.9 63.4 50.7h8.2a2 2 0 0 1 2.1 2.1v13.6h15.6a2.1 2.1 0 1 1 0 4.2z"/><path d="M145.5 146.9h42.6v23.16h-42.6zm-13.6-66.4V127h57.6a62 62 0 0 0-57.6-46.5zm-72.2 50.7h140.2v11.47H59.7z"/></symbol><symbol id="stilts" viewBox="0 0 256 256"><path d="M138.8 159.8h20.9v13.14h-20.9zm25.1 0h13.4v13.14h-13.4zm-67.6 0h20.9v13.14H96.3zm25 0h13.4v13.14h-13.4zm-42.5 0h13.4v13.14H78.8zm49.2-87c-24.4 0-44.9 14.8-45.9 41.7h91.8c-1.1-26.9-21.5-41.7-45.9-41.7zm-61.8 82.8h123.5v-36.9H66.2zm60.8-14.2h50.9a2.1 2.1 0 0 1 0 4.2H127a2.1 2.1 0 1 1 0-4.2z"/><path fill="none" d="M191.8 114.5h-13.7c-1-29.6-23.2-45.9-50.1-45.9s-49 16.3-50.1 45.9H64.2a2 2 0 0 0-2.1 2.1v41.1a2 2 0 0 0 2.1 2.1h10.4v13.1H64.2a2.1 2.1 0 1 0 0 4.2h127.6a2.1 2.1 0 1 0 0-4.2h-10.4v-13.1h10.4a2 2 0 0 0 2.1-2.1v-41.1a2 2 0 0 0-2.1-2.1zm-14 31.1H127a2.1 2.1 0 1 1 0-4.2h50.9a2.1 2.1 0 0 1 0 4.2z"/><path d="M128 3.1L18 66.6v127l110 63.5 110-63.5v-127zm65.9 154.5a2 2 0 0 1-2.1 2.1h-10.4v13.1h10.4a2.1 2.1 0 1 1 0 4.2H64.2a2.1 2.1 0 1 1 0-4.2h10.4v-13H64.2a2 2 0 0 1-2.1-2.1v-41.1a2 2 0 0 1 2.1-2.1h13.7c1-29.6 23.2-45.9 50.1-45.9s49 16.3 50.1 45.9h13.8a2 2 0 0 1 2.1 2.1z"/></symbol></svg>